<svg xmlns="http://www.w3.org/2000/svg" xmlns:xlink="http://www.w3.org/1999/xlink" viewBox="0 0 430 430" width="430" height="430" preserveAspectRatio="xMidYMid meet" style="width: 100%; height: 100%; transform: translate3d(0px, 0px, 0px); content-visibility: visible;"><defs><clipPath id="__lottie_element_3252"><rect width="430" height="430" x="0" y="0"/></clipPath><clipPath id="__lottie_element_3254"><path d="M0,0 L430,0 L430,430 L0,430z"/></clipPath><filter id="__lottie_element_3260" x="-100%" y="-100%" width="300%" height="300%"><feGaussianBlur result="filter_result_0" stdDeviation="52.5 52.5" edgeMode="wrap"/></filter><g id="__lottie_element_3261"><g clip-path="url(#__lottie_element_3262)" transform="matrix(1,0,0,1,0,0)" opacity="1" style="display: block;"><g transform="matrix(1,0,0,1,-35,-35)" opacity="1" style="display: block;"><g opacity="1" transform="matrix(1,0,0,1,0,0)"><g opacity="1" transform="matrix(1,0,0,1,343.22601318359375,183.7760009765625)"><path stroke-linecap="round" stroke-linejoin="round" fill-opacity="0" class="secondary" stroke="rgb(8,168,138)" stroke-opacity="1" stroke-width="12" d=" M22.80900001525879,21.823999404907227 C8.840999603271484,7.855000019073486 -9.043999671936035,-10.029000282287598 -22.84000015258789,-23.826000213623047 M-22.70800018310547,22.70800018310547 C-8.532999992370605,8.532999992370605 9.616000175476074,-9.616000175476074 23.615999221801758,-23.615999221801758"/></g></g><g opacity="1" transform="matrix(1,0,0,1,343.7179870605469,183.28399658203125)"><path stroke-linecap="round" stroke-linejoin="round" fill-opacity="0" class="primary" stroke="rgb(18,19,49)" stroke-opacity="1" stroke-width="12" d=" M-66.71600341796875,0 C-66.71600341796875,36.84600067138672 -36.84600067138672,66.71600341796875 0,66.71600341796875 C36.84600067138672,66.71600341796875 66.71600341796875,36.84600067138672 66.71600341796875,0 C66.71600341796875,-36.84600067138672 36.84600067138672,-66.71600341796875 0,-66.71600341796875 C-36.84600067138672,-66.71600341796875 -66.71600341796875,-36.84600067138672 -66.71600341796875,0z"/></g></g><g transform="matrix(1,0,0,1,-35,-35)" opacity="1" style="display: block;"><g opacity="1" transform="matrix(1,0,0,1,150.53500366210938,175.13400268554688)"><path stroke-linecap="round" stroke-linejoin="round" fill-opacity="0" class="secondary" stroke="rgb(8,168,138)" stroke-opacity="1" stroke-width="12" d=" M-27.42799949645996,15.975000381469727 C-18.40999984741211,24.993000030517578 -10.649999618530273,32.75400161743164 -10.649999618530273,32.75400161743164 C-10.649999618530273,32.75400161743164 17.89900016784668,4.203999996185303 37.303001403808594,-15.199999809265137"/></g><g opacity="1" transform="matrix(1,0,0,1,156.28199768066406,183.28399658203125)"><path stroke-linecap="round" stroke-linejoin="round" fill-opacity="0" class="primary" stroke="rgb(18,19,49)" stroke-opacity="1" stroke-width="12" d=" M-66.71600341796875,0 C-66.71600341796875,36.84600067138672 -36.84600067138672,66.71600341796875 0,66.71600341796875 C36.84600067138672,66.71600341796875 66.71600341796875,36.84600067138672 66.71600341796875,0 C66.71600341796875,-36.84600067138672 36.84600067138672,-66.71600341796875 0,-66.71600341796875 C-36.84600067138672,-66.71600341796875 -66.71600341796875,-36.84600067138672 -66.71600341796875,0z"/></g></g><g transform="matrix(1,0,0,1,-35,-35)" opacity="1" style="display: block;"><g opacity="1" transform="matrix(1,0,0,1,169.58299255371094,311.99798583984375)"><path stroke-linecap="round" stroke-linejoin="round" fill-opacity="0" class="primary" stroke="rgb(18,19,49)" stroke-opacity="1" stroke-width="12" d=" M-43.08300018310547,0 C-43.08300018310547,0 43.08300018310547,0 43.08300018310547,0"/></g><g opacity="1" transform="matrix(1,0,0,1,100.2490005493164,311.99798583984375)"><path stroke-linecap="round" stroke-linejoin="round" fill-opacity="0" class="primary" stroke="rgb(18,19,49)" stroke-opacity="1" stroke-width="12" d=" M-0.35199999809265137,0 C-0.35199999809265137,0 0.35199999809265137,0 0.35199999809265137,0"/></g></g><g transform="matrix(1,0,0,1,-35,-35)" opacity="1" style="display: block;"><g opacity="1" transform="matrix(1,0,0,1,169.58299255371094,363.17999267578125)"><path stroke-linecap="round" stroke-linejoin="round" fill-opacity="0" class="primary" stroke="rgb(18,19,49)" stroke-opacity="1" stroke-width="12" d=" M-43.08300018310547,0 C-43.08300018310547,0 43.08300018310547,0 43.08300018310547,0"/></g><g opacity="1" transform="matrix(1,0,0,1,100.2490005493164,363.17999267578125)"><path stroke-linecap="round" stroke-linejoin="round" fill-opacity="0" class="primary" stroke="rgb(18,19,49)" stroke-opacity="1" stroke-width="12" d=" M-0.35199999809265137,0 C-0.35199999809265137,0 0.35199999809265137,0 0.35199999809265137,0"/></g></g><g transform="matrix(1,0,0,1,-35,-35)" opacity="1" style="display: block;"><g opacity="1" transform="matrix(1,0,0,1,357.0199890136719,311.99798583984375)"><path stroke-linecap="round" stroke-linejoin="round" fill-opacity="0" class="primary" stroke="rgb(18,19,49)" stroke-opacity="1" stroke-width="12" d=" M-43.08300018310547,0 C-43.08300018310547,0 43.08300018310547,0 43.08300018310547,0"/></g><g opacity="1" transform="matrix(1,0,0,1,287.6860046386719,311.99798583984375)"><path stroke-linecap="round" stroke-linejoin="round" fill-opacity="0" class="primary" stroke="rgb(18,19,49)" stroke-opacity="1" stroke-width="12" d=" M-0.35199999809265137,0 C-0.35199999809265137,0 0.35199999809265137,0 0.35199999809265137,0"/></g></g><g transform="matrix(1,0,0,1,-35,-35)" opacity="1" style="display: block;"><g opacity="1" transform="matrix(1,0,0,1,357.0199890136719,363.17999267578125)"><path stroke-linecap="round" stroke-linejoin="round" fill-opacity="0" class="primary" stroke="rgb(18,19,49)" stroke-opacity="1" stroke-width="12" d=" M-43.08300018310547,0 C-43.08300018310547,0 43.08300018310547,0 43.08300018310547,0"/></g><g opacity="1" transform="matrix(1,0,0,1,287.6860046386719,363.17999267578125)"><path stroke-linecap="round" stroke-linejoin="round" fill-opacity="0" class="primary" stroke="rgb(18,19,49)" stroke-opacity="1" stroke-width="12" d=" M-0.35199999809265137,0 C-0.35199999809265137,0 0.35199999809265137,0 0.35199999809265137,0"/></g></g></g></g><clipPath id="__lottie_element_3262"><path d="M0,0 L430,0 L430,430 L0,430z"/></clipPath><mask id="__lottie_element_3261_1" mask-type="alpha"><use xmlns:ns1="http://www.w3.org/1999/xlink" ns1:href="#__lottie_element_3261"/></mask></defs><g clip-path="url(#__lottie_element_3252)"><g clip-path="url(#__lottie_element_3254)" transform="matrix(1,0,0,1,0,0)" opacity="1" style="display: block;"><g mask="url(#__lottie_element_3261_1)" style="display: block;"><g filter="url(#__lottie_element_3260)" transform="matrix(-0.1674155443906784,-2.3941538333892822,2.3941538333892822,-0.1674155443906784,271.9410095214844,220.4600067138672)" opacity="1"><g class="design" opacity="1" transform="matrix(1,0,0,1,0,0)"><path class="primary" fill="rgb(74,224,235)" fill-opacity="1" d=" M0,-250 C137.97500610351562,-250 250,-137.97500610351562 250,0 C250,137.97500610351562 137.97500610351562,250 0,250 C-137.97500610351562,250 -250,137.97500610351562 -250,0 C-250,-137.97500610351562 -137.97500610351562,-250 0,-250z"/></g><g class="design" opacity="1" transform="matrix(1,0,0,1,113.24199676513672,-118.88400268554688)"><path class="secondary" fill="rgb(202,94,237)" fill-opacity="1" d=" M0,-176.5 C97.47799682617188,-176.5 176.5,-97.47799682617188 176.5,0 C176.5,97.47799682617188 97.47799682617188,176.5 0,176.5 C-43.948001861572266,176.5 -74.39600372314453,142.4429931640625 -105.29000091552734,115.86900329589844 C-142.92100524902344,83.5 -176.5,53.53099822998047 -176.5,0 C-176.5,-97.47799682617188 -97.47799682617188,-176.5 0,-176.5z"/></g></g></g></g></g></svg>