<svg xmlns="http://www.w3.org/2000/svg" xmlns:xlink="http://www.w3.org/1999/xlink" viewBox="0 0 430 430" width="430" height="430" preserveAspectRatio="xMidYMid meet" style="width: 100%; height: 100%; transform: translate3d(0px, 0px, 0px); content-visibility: visible;"><defs><clipPath id="__lottie_element_2773"><rect width="430" height="430" x="0" y="0"/></clipPath><clipPath id="__lottie_element_2775"><path d="M0,0 L430,0 L430,430 L0,430z"/></clipPath><filter id="__lottie_element_2781" x="-100%" y="-100%" width="300%" height="300%"><feGaussianBlur result="filter_result_0" stdDeviation="52.5 52.5" edgeMode="wrap"/></filter><g id="__lottie_element_2782"><g clip-path="url(#__lottie_element_2783)" transform="matrix(1,0,0,1,0,0)" opacity="1" style="display: block;"><g mask="url(#__lottie_element_2789_1)" style="display: block;"><g transform="matrix(1,0,0,1,472.5,160)" opacity="1"><g opacity="1" transform="matrix(0.9848077297210693,-0.1736481636762619,0.1736481636762619,0.9848077297210693,-4.298051834106445,-5.834962844848633)"><path stroke-linecap="round" stroke-linejoin="round" fill-opacity="0" class="secondary" stroke="rgb(8,168,138)" stroke-opacity="1" stroke-width="12" d=" M-62.5,-65 C-53.26499938964844,-65 -45.2140007019043,-58.71500015258789 -42.9739990234375,-49.755001068115234 C-42.9739990234375,-49.755001068115234 -41.547000885009766,-44.047000885009766 -41.547000885009766,-44.047000885009766 M-31.070999145507812,9.644000053405762 C-31.070999145507812,9.644000053405762 -41.547000885009766,-44.047000885009766 -41.547000885009766,-44.047000885009766 M-41.547000885009766,-44.047000885009766 C-41.547000885009766,-44.047000885009766 62.5,-44.047000885009766 62.5,-44.047000885009766 C62.5,-44.047000885009766 50.323001861572266,-4.229000091552734 50.323001861572266,-4.229000091552734 C48.625999450683594,1.3209999799728394 43.6609992980957,5.232999801635742 37.86800003051758,5.584000110626221 C37.86800003051758,5.584000110626221 -24.249000549316406,9.348999977111816 -24.249000549316406,9.348999977111816 C-31.024999618530273,9.760000228881836 -36.308998107910156,15.375 -36.308998107910156,22.163000106811523"/></g><g opacity="1" transform="matrix(1,0,0,1,0,0)"><path stroke-linecap="round" stroke-linejoin="round" fill-opacity="0" class="secondary" stroke="rgb(8,168,138)" stroke-opacity="1" stroke-width="12" d=" M-36.308998107910156,22.163000106811523 C-36.308998107910156,29.253000259399414 -30.562000274658203,35 -23.472000122070312,35 C-23.472000122070312,35 37.5,35 37.5,35 M52.5,50 C52.5,41.691001892089844 45.755001068115234,35 37.5,35 C29.2450008392334,35 22.554000854492188,41.691001892089844 22.5,50 C22.5,58.308998107910156 29.2450008392334,65 37.5,65 C45.808998107910156,65 52.5,58.255001068115234 52.5,50z M-7.5,50 C-7.5,41.691001892089844 -14.244999885559082,35 -22.5,35 C-30.7549991607666,35 -37.44599914550781,41.691001892089844 -37.5,50 C-37.5,58.308998107910156 -30.80900001525879,65 -22.5,65 C-14.190999984741211,65 -7.5,58.255001068115234 -7.5,50z"/><path fill="rgb(255,0,0)" fill-opacity="1" d=" M52.5,50 C52.5,41.691001892089844 45.755001068115234,35 37.5,35 C29.2450008392334,35 22.554000854492188,41.691001892089844 22.5,50 C22.5,58.308998107910156 29.2450008392334,65 37.5,65 C45.808998107910156,65 52.5,58.255001068115234 52.5,50z M-7.5,50 C-7.5,41.691001892089844 -14.244999885559082,35 -22.5,35 C-30.7549991607666,35 -37.44599914550781,41.691001892089844 -37.5,50 C-37.5,58.308998107910156 -30.80900001525879,65 -22.5,65 C-14.190999984741211,65 -7.5,58.255001068115234 -7.5,50z"/></g></g></g><g mask="url(#__lottie_element_2795_1)" style="display: block;"><g transform="matrix(1,0,0,1,205.5,160)" opacity="1"><g opacity="1" transform="matrix(1,0,0,1,0,0)"><path stroke-linecap="round" stroke-linejoin="round" fill-opacity="0" class="secondary" stroke="rgb(8,168,138)" stroke-opacity="1" stroke-width="12" d=" M-36.308998107910156,22.163000106811523 C-36.308998107910156,29.253000259399414 -30.562000274658203,35 -23.472000122070312,35 C-23.472000122070312,35 37.5,35 37.5,35 M52.5,50 C52.5,41.691001892089844 45.755001068115234,35 37.5,35 C29.2450008392334,35 22.554000854492188,41.691001892089844 22.5,50 C22.5,58.308998107910156 29.2450008392334,65 37.5,65 C45.808998107910156,65 52.5,58.255001068115234 52.5,50z M-7.5,50 C-7.5,41.691001892089844 -14.244999885559082,35 -22.5,35 C-30.7549991607666,35 -37.44599914550781,41.691001892089844 -37.5,50 C-37.5,58.308998107910156 -30.80900001525879,65 -22.5,65 C-14.190999984741211,65 -7.5,58.255001068115234 -7.5,50z"/><path fill="rgb(255,0,0)" fill-opacity="1" d=" M52.5,50 C52.5,41.691001892089844 45.755001068115234,35 37.5,35 C29.2450008392334,35 22.554000854492188,41.691001892089844 22.5,50 C22.5,58.308998107910156 29.2450008392334,65 37.5,65 C45.808998107910156,65 52.5,58.255001068115234 52.5,50z M-7.5,50 C-7.5,41.691001892089844 -14.244999885559082,35 -22.5,35 C-30.7549991607666,35 -37.44599914550781,41.691001892089844 -37.5,50 C-37.5,58.308998107910156 -30.80900001525879,65 -22.5,65 C-14.190999984741211,65 -7.5,58.255001068115234 -7.5,50z"/></g></g></g><g mask="url(#__lottie_element_2801_1)" style="display: block;"><g transform="matrix(1,0,0,1,205.5,160)" opacity="1"><g opacity="1" transform="matrix(1,0,0,1,0,0)"><path stroke-linecap="round" stroke-linejoin="round" fill-opacity="0" class="secondary" stroke="rgb(8,168,138)" stroke-opacity="1" stroke-width="12" d=" M-62.5,-65 C-53.26499938964844,-65 -45.2140007019043,-58.71500015258789 -42.9739990234375,-49.755001068115234 C-42.9739990234375,-49.755001068115234 -41.547000885009766,-44.047000885009766 -41.547000885009766,-44.047000885009766 M-31.070999145507812,9.644000053405762 C-31.070999145507812,9.644000053405762 -41.547000885009766,-44.047000885009766 -41.547000885009766,-44.047000885009766 M-41.547000885009766,-44.047000885009766 C-41.547000885009766,-44.047000885009766 62.5,-44.047000885009766 62.5,-44.047000885009766 C62.5,-44.047000885009766 50.323001861572266,-4.229000091552734 50.323001861572266,-4.229000091552734 C48.625999450683594,1.3209999799728394 43.6609992980957,5.232999801635742 37.86800003051758,5.584000110626221 C37.86800003051758,5.584000110626221 -24.249000549316406,9.348999977111816 -24.249000549316406,9.348999977111816 C-31.024999618530273,9.760000228881836 -36.308998107910156,15.375 -36.308998107910156,22.163000106811523"/></g></g></g><g transform="matrix(1,0,0,1,215,215)" opacity="1" style="display: block;"><g opacity="1" transform="matrix(1,0,0,1,0,0)"><path stroke-linecap="round" stroke-linejoin="round" fill-opacity="0" class="primary" stroke="rgb(18,19,49)" stroke-opacity="1" stroke-width="12" d=" M-170,40 C-170,40 170,40 170,40 M-70,160 C-70,160 70,160 70,160 M-30,100 C-30,100 -35,160 -35,160 M35,160 C35,160 30,100 30,100 M-150,-160 C-161.04600524902344,-160 -170,-151.04600524902344 -170,-140 C-170,-140 -170,80 -170,80 C-170,91.0459976196289 -161.04600524902344,100 -150,100 C-150,100 150,100 150,100 C161.04600524902344,100 170,91.0459976196289 170,80 C170,80 170,-140 170,-140 C170,-151.04600524902344 161.04600524902344,-160 150,-160 C150,-160 -150,-160 -150,-160z"/></g><g opacity="1" transform="matrix(1,0,0,1,0,0)"><path stroke-linecap="round" stroke-linejoin="round" fill-opacity="0" class="secondary" stroke="rgb(8,168,138)" stroke-opacity="1" stroke-width="20" d=" M0.028999999165534973,70.17900085449219 C0.028999999165534973,70.17900085449219 -0.125,70.08499908447266 -0.125,70.08499908447266"/></g></g></g></g><clipPath id="__lottie_element_2783"><path d="M0,0 L430,0 L430,430 L0,430z"/></clipPath><mask id="__lottie_element_2782_1" mask-type="alpha"><use xmlns:ns1="http://www.w3.org/1999/xlink" ns1:href="#__lottie_element_2782"/></mask><g id="__lottie_element_2789"><g transform="matrix(1,0,0,1,215,215)" opacity="1" style="display: block;"><g opacity="1" transform="matrix(1,0,0,1,0,0)"><path fill="rgb(255,0,0)" fill-opacity="1" d=" M-150,-160 C-161.04600524902344,-160 -170,-151.04600524902344 -170,-140 C-170,-140 -170,80 -170,80 C-170,91.0459976196289 -161.04600524902344,100 -150,100 C-150,100 150,100 150,100 C161.04600524902344,100 170,91.0459976196289 170,80 C170,80 170,-140 170,-140 C170,-151.04600524902344 161.04600524902344,-160 150,-160 C150,-160 -150,-160 -150,-160z"/></g></g></g><g id="__lottie_element_2795"><g transform="matrix(1,0,0,1,215,215)" opacity="1" style="display: block;"><g opacity="1" transform="matrix(1,0,0,1,0,0)"><path fill="rgb(255,0,0)" fill-opacity="1" d=" M-150,-160 C-161.04600524902344,-160 -170,-151.04600524902344 -170,-140 C-170,-140 -170,80 -170,80 C-170,91.0459976196289 -161.04600524902344,100 -150,100 C-150,100 150,100 150,100 C161.04600524902344,100 170,91.0459976196289 170,80 C170,80 170,-140 170,-140 C170,-151.04600524902344 161.04600524902344,-160 150,-160 C150,-160 -150,-160 -150,-160z"/></g></g></g><g id="__lottie_element_2801"><g transform="matrix(1,0,0,1,215,215)" opacity="1" style="display: block;"><g opacity="1" transform="matrix(1,0,0,1,0,0)"><path fill="rgb(255,0,0)" fill-opacity="1" d=" M-150,-160 C-161.04600524902344,-160 -170,-151.04600524902344 -170,-140 C-170,-140 -170,80 -170,80 C-170,91.0459976196289 -161.04600524902344,100 -150,100 C-150,100 150,100 150,100 C161.04600524902344,100 170,91.0459976196289 170,80 C170,80 170,-140 170,-140 C170,-151.04600524902344 161.04600524902344,-160 150,-160 C150,-160 -150,-160 -150,-160z"/></g></g></g><mask id="__lottie_element_2801_1" mask-type="alpha"><use xmlns:ns2="http://www.w3.org/1999/xlink" ns2:href="#__lottie_element_2801"/></mask><mask id="__lottie_element_2795_1" mask-type="alpha"><use xmlns:ns3="http://www.w3.org/1999/xlink" ns3:href="#__lottie_element_2795"/></mask><mask id="__lottie_element_2789_1" mask-type="alpha"><use xmlns:ns4="http://www.w3.org/1999/xlink" ns4:href="#__lottie_element_2789"/></mask></defs><g clip-path="url(#__lottie_element_2773)"><g clip-path="url(#__lottie_element_2775)" transform="matrix(1,0,0,1,0,0)" opacity="1" style="display: block;"><g mask="url(#__lottie_element_2782_1)" style="display: block;"><g filter="url(#__lottie_element_2781)" transform="matrix(-0.16912943124771118,-2.394033432006836,2.394033432006836,-0.16912943124771118,271.9410095214844,219.4600067138672)" opacity="1"><g class="design" opacity="1" transform="matrix(1,0,0,1,0,0)"><path class="primary" fill="rgb(75,225,236)" fill-opacity="1" d=" M0,-250 C137.97500610351562,-250 250,-137.97500610351562 250,0 C250,137.97500610351562 137.97500610351562,250 0,250 C-137.97500610351562,250 -250,137.97500610351562 -250,0 C-250,-137.97500610351562 -137.97500610351562,-250 0,-250z"/></g><g class="design" opacity="1" transform="matrix(1,0,0,1,113.24199676513672,-118.88400268554688)"><path class="secondary" fill="rgb(203,94,238)" fill-opacity="1" d=" M0,-176.5 C97.47799682617188,-176.5 176.5,-97.47799682617188 176.5,0 C176.5,97.47799682617188 97.47799682617188,176.5 0,176.5 C-43.948001861572266,176.5 -74.39600372314453,142.4429931640625 -105.29000091552734,115.86900329589844 C-142.92100524902344,83.5 -176.5,53.53099822998047 -176.5,0 C-176.5,-97.47799682617188 -97.47799682617188,-176.5 0,-176.5z"/></g></g></g></g></g></svg>