<svg xmlns="http://www.w3.org/2000/svg" xmlns:xlink="http://www.w3.org/1999/xlink" viewBox="0 0 430 430" width="430" height="430" preserveAspectRatio="xMidYMid meet" style="width: 100%; height: 100%; transform: translate3d(0px, 0px, 0px); content-visibility: visible;"><defs><clipPath id="__lottie_element_2383"><rect width="430" height="430" x="0" y="0"/></clipPath><clipPath id="__lottie_element_2385"><path d="M0,0 L430,0 L430,430 L0,430z"/></clipPath><filter id="__lottie_element_2391" x="-100%" y="-100%" width="300%" height="300%"><feGaussianBlur result="filter_result_0" stdDeviation="52.5 52.5" edgeMode="wrap"/></filter><g id="__lottie_element_2392"><g clip-path="url(#__lottie_element_2393)" transform="matrix(1,0,0,1,0,0)" opacity="1" style="display: block;"><g transform="matrix(0.6363961100578308,0.6363961100578308,-0.6363961100578308,0.6363961100578308,250.6136016845703,165.96923828125)" opacity="1" style="display: block;"><g opacity="1" transform="matrix(0.7071067690849304,-0.7071067690849304,0.7071067690849304,0.7071067690849304,0,0)"><path stroke-linecap="round" stroke-linejoin="round" fill-opacity="0" class="secondary" stroke="rgb(8,168,138)" stroke-opacity="1" stroke-width="13.3" d=" M-29.756000518798828,30.066999435424805 C-16.826000213623047,42.99700164794922 4.131999969482422,42.99700164794922 17.062000274658203,30.066999435424805 C29.992000579833984,17.136999130249023 29.98699951171875,-3.815000057220459 17.062000274658203,-16.739999771118164 C4.131999969482422,-29.670000076293945 -16.826000213623047,-29.659000396728516 -29.756000518798828,-16.739999771118164 C-42.68600082397461,-3.821000099182129 -42.68600082397461,17.136999130249023 -29.756000518798828,30.066999435424805z"/></g></g><g transform="matrix(0.6363961100578308,0.6363961100578308,-0.6363961100578308,0.6363961100578308,164.3526611328125,253.64552307128906)" opacity="1" style="display: block;"><g opacity="1" transform="matrix(0.7071067690849304,-0.7071067690849304,0.7071067690849304,0.7071067690849304,0,0)"><path stroke-linecap="round" stroke-linejoin="round" fill-opacity="0" class="secondary" stroke="rgb(8,168,138)" stroke-opacity="1" stroke-width="13.3" d=" M-32.95500183105469,-34.542999267578125 C-32.95500183105469,-34.542999267578125 -35.59199905395508,-30.7549991607666 -35.59199905395508,-30.7549991607666 C-44.465999603271484,-9.088000297546387 -41.38399887084961,13.138999938964844 -27.583999633789062,26.93899917602539 C-13.784000396728516,40.73899841308594 8.442999839782715,43.82099914550781 30.110000610351562,34.946998596191406 C30.110000610351562,34.946998596191406 34.20800018310547,33.21900177001953 34.20800018310547,33.21900177001953"/></g></g><g transform="matrix(0.6363961100578308,0.6363961100578308,-0.6363961100578308,0.6363961100578308,262.4620361328125,154.11317443847656)" opacity="1" style="display: block;"><g opacity="1" transform="matrix(1,0,0,1,0,0)"><path stroke-linecap="round" stroke-linejoin="round" fill-opacity="0" class="primary" stroke="rgb(18,19,49)" stroke-opacity="1" stroke-width="13.3" d=" M53.82099914550781,-55.5099983215332 C53.82099914550781,-55.5099983215332 37.948001861572266,-41.869998931884766 0.7940000295639038,-41.869998931884766 C-36.36000061035156,-41.869998931884766 -53.180999755859375,-56.03200149536133 -53.180999755859375,-56.03200149536133 M68.52400207519531,135.58700561523438 C66.72000122070312,145.23899841308594 58.250999450683594,151.42300415039062 48.42900085449219,151.42300415039062 C48.42900085449219,151.42300415039062 -48.42900085449219,151.42300415039062 -48.42900085449219,151.42300415039062 C-58.250999450683594,151.42300415039062 -66.70999908447266,145.2469940185547 -68.52300262451172,135.58700561523438 C-72.80400085449219,112.73400115966797 -75.90799713134766,83.46600341796875 -74.31700134277344,40.582000732421875 C-72.73400115966797,-2.0829999446868896 -66.05599975585938,-25.440000534057617 -53.72100067138672,-55.70899963378906 C-41.45500183105469,-85.81099700927734 -23.340999603271484,-111.19000244140625 0.11999999731779099,-129.41900634765625 C23.645000457763672,-111.13899993896484 42.183998107910156,-86.07099914550781 54.45100021362305,-55.86899948120117 C66.7229995727539,-25.652999877929688 73.79399871826172,5.381999969482422 75.10299682617188,39.01100158691406 C76.77200317382812,81.90899658203125 72.80500030517578,112.73400115966797 68.52400207519531,135.58700561523438z"/></g></g><g transform="matrix(0.6363961100578308,0.6363961100578308,-0.6363961100578308,0.6363961100578308,247.04978942871094,296.07025146484375)" opacity="1" style="display: block;"><g opacity="1" transform="matrix(0.7071067690849304,-0.7071067690849304,0.7071067690849304,0.7071067690849304,0,0)"><path stroke-linecap="round" stroke-linejoin="round" fill-opacity="0" class="primary" stroke="rgb(18,19,49)" stroke-opacity="1" stroke-width="13.3" d=" M-37.53499984741211,-8.496000289916992 C-37.53499984741211,-8.496000289916992 -15.055999755859375,17.143999099731445 -15.833999633789062,65.45500183105469 C35.5,11.58899974822998 26.042999267578125,-58.78900146484375 26.042999267578125,-58.78900146484375"/></g></g><g transform="matrix(0.6363961100578308,0.6363961100578308,-0.6363961100578308,0.6363961100578308,118.49777221679688,167.51821899414062)" opacity="1" style="display: block;"><g opacity="1" transform="matrix(0.7071067690849304,-0.7071067690849304,0.7071067690849304,0.7071067690849304,0,0)"><path stroke-linecap="round" stroke-linejoin="round" fill-opacity="0" class="primary" stroke="rgb(18,19,49)" stroke-opacity="1" stroke-width="13.3" d=" M10.194999694824219,39.23400115966797 C10.194999694824219,39.23400115966797 -14.442999839782715,19.979000091552734 -62.452999114990234,18.836000442504883 C-9.442999839782715,-29.46500015258789 59.402000427246094,-22.09600067138672 59.402000427246094,-22.09600067138672"/></g></g><g transform="matrix(0.7071060538291931,0.7071060538291931,-0.7071060538291931,0.7071060538291931,243.63555908203125,302.41119384765625)" opacity="1" style="display: block;"><g opacity="1" transform="matrix(0.7071067690849304,-0.7071067690849304,0.7071067690849304,0.7071067690849304,-82.0457992553711,-41.70807647705078)"><path stroke-linecap="round" stroke-linejoin="round" fill-opacity="0" class="secondary" stroke="rgb(8,168,138)" stroke-opacity="1" stroke-width="8" d=" M-90.79000091552734,119.40899658203125 C-102.052001953125,130.67100524902344 -130.9550018310547,139.18299865722656 -153.6009979248047,141.43699645996094 C-150.33700561523438,117.78099822998047 -142.83599853515625,89.88700103759766 -131.57400512695312,78.625 C-120.31199645996094,67.36299896240234 -102.052001953125,67.36299896240234 -90.79000091552734,78.625 C-79.52799987792969,89.88700103759766 -79.52799987792969,108.14700317382812 -90.79000091552734,119.40899658203125z"/><path fill="rgb(255,0,0)" fill-opacity="1" d=" M-90.79000091552734,119.40899658203125 C-102.052001953125,130.67100524902344 -130.9550018310547,139.18299865722656 -153.6009979248047,141.43699645996094 C-150.33700561523438,117.78099822998047 -142.83599853515625,89.88700103759766 -131.57400512695312,78.625 C-120.31199645996094,67.36299896240234 -102.052001953125,67.36299896240234 -90.79000091552734,78.625 C-79.52799987792969,89.88700103759766 -79.52799987792969,108.14700317382812 -90.79000091552734,119.40899658203125z"/></g></g></g></g><clipPath id="__lottie_element_2393"><path d="M0,0 L430,0 L430,430 L0,430z"/></clipPath><mask id="__lottie_element_2392_1" mask-type="alpha"><use xmlns:ns1="http://www.w3.org/1999/xlink" ns1:href="#__lottie_element_2392"/></mask></defs><g clip-path="url(#__lottie_element_2383)"><g clip-path="url(#__lottie_element_2385)" transform="matrix(1,0,0,1,0,0)" opacity="1" style="display: block;"><g mask="url(#__lottie_element_2392_1)" style="display: block;"><g filter="url(#__lottie_element_2391)" transform="matrix(-0.1674155443906784,-2.3941538333892822,2.3941538333892822,-0.1674155443906784,271.9410095214844,220.4600067138672)" opacity="1"><g class="design" opacity="1" transform="matrix(1,0,0,1,0,0)"><path class="primary" fill="rgb(74,224,235)" fill-opacity="1" d=" M0,-250 C137.97500610351562,-250 250,-137.97500610351562 250,0 C250,137.97500610351562 137.97500610351562,250 0,250 C-137.97500610351562,250 -250,137.97500610351562 -250,0 C-250,-137.97500610351562 -137.97500610351562,-250 0,-250z"/></g><g class="design" opacity="1" transform="matrix(1,0,0,1,113.24199676513672,-118.88400268554688)"><path class="secondary" fill="rgb(202,94,237)" fill-opacity="1" d=" M0,-176.5 C97.47799682617188,-176.5 176.5,-97.47799682617188 176.5,0 C176.5,97.47799682617188 97.47799682617188,176.5 0,176.5 C-43.948001861572266,176.5 -74.39600372314453,142.4429931640625 -105.29000091552734,115.86900329589844 C-142.92100524902344,83.5 -176.5,53.53099822998047 -176.5,0 C-176.5,-97.47799682617188 -97.47799682617188,-176.5 0,-176.5z"/></g></g></g></g></g></svg>