<?xml version="1.0" encoding="UTF-8"?>
<svg version="1.1" xmlns="http://www.w3.org/2000/svg" width="823" height="227">
<path d="M0 0 C2.51462772 2.22810342 4.97081438 4.50685602 7.41796875 6.80859375 C8.02253906 7.33710937 8.62710938 7.865625 9.25 8.41015625 C28.34263369 25.84839311 37.1032569 54.73287021 38.41796875 79.80859375 C39.51398354 110.56343308 32.86770151 142.55490425 11.41796875 165.74609375 C9.4513001 167.80205845 7.4469341 169.81425721 5.41796875 171.80859375 C4.65613281 172.56914062 3.89429688 173.3296875 3.109375 174.11328125 C-18.42460239 194.4223902 -49.6042957 202.88162841 -78.59765625 202.09375 C-98.7928299 201.15030854 -116.9725664 195.55720898 -134.58203125 185.80859375 C-135.56945312 185.26460937 -136.556875 184.720625 -137.57421875 184.16015625 C-159.14127875 171.34494668 -175.41210095 148.55359505 -181.8046875 124.39453125 C-187.54004647 101.20708128 -188.59886482 73.89899585 -181.58203125 50.80859375 C-181.36772461 50.10154297 -181.15341797 49.39449219 -180.93261719 48.66601562 C-176.29643183 33.99488466 -168.89283649 21.25714301 -158.58203125 9.80859375 C-157.89625 9.0403125 -157.21046875 8.27203125 -156.50390625 7.48046875 C-117.11292871 -34.24478894 -43.39458633 -36.82959596 0 0 Z M-115.58203125 48.80859375 C-126.68958547 63.75373644 -129.68385817 81.93710582 -127.27734375 100.109375 C-124.67747079 114.83314536 -117.90689363 127.59736684 -105.9453125 136.84765625 C-92.94229299 145.56580057 -78.97171012 148.49880025 -63.4609375 146.3828125 C-49.71367048 143.40697648 -37.20303783 135.83838209 -29.38134766 123.98974609 C-19.52974052 107.61483377 -17.27692134 89.32318402 -21.42578125 70.7109375 C-25.22053284 56.92357257 -32.95647439 44.74092119 -45.4921875 37.4296875 C-52.49057862 33.62383577 -59.55337194 30.4100894 -67.58203125 29.80859375 C-68.47664063 29.72867188 -69.37125 29.64875 -70.29296875 29.56640625 C-88.08058899 28.75571042 -103.51999787 35.890949 -115.58203125 48.80859375 Z " fill="#00BDBF" transform="translate(507.58203125,25.19140625)"/>
<path d="M0 0 C4.63383113 4.39579443 8.40104261 9.03858518 11.5 14.625 C12.06267578 15.58986328 12.06267578 15.58986328 12.63671875 16.57421875 C16.16028865 23.03191377 18.5 30.25446973 18.5 37.625 C6.29 37.625 -5.92 37.625 -18.5 37.625 C-19.82 34.985 -21.14 32.345 -22.5 29.625 C-27.08896177 22.905784 -33.96241454 19.53251709 -41.859375 17.953125 C-52.25639481 16.92806671 -60.9259288 18.4648355 -69.5 24.625 C-76.22178928 30.5778272 -79.56576858 37.96169515 -81.5 46.625 C-82.29646696 59.79934693 -81.8876056 71.2225207 -73.109375 81.84765625 C-72.57828125 82.43417969 -72.0471875 83.02070313 -71.5 83.625 C-71.01015625 84.18058594 -70.5203125 84.73617187 -70.015625 85.30859375 C-64.17079939 91.11001719 -56.25293842 93.29392165 -48.19140625 93.85546875 C-39.3714652 93.56958831 -30.95228784 90.97169999 -24.5234375 84.6953125 C-21.22316901 80.51714007 -19.66350026 76.67316728 -17.5 71.625 C-5.29 71.625 6.92 71.625 19.5 71.625 C15.99719459 89.13902706 15.99719459 89.13902706 12.875 94.9375 C12.35123779 95.93438843 12.35123779 95.93438843 11.81689453 96.95141602 C3.62669941 111.938854 -9.6947462 120.85686801 -25.76171875 125.6953125 C-47.76136317 131.16648844 -69.38610324 128.89413782 -89.26171875 117.73046875 C-104.31363662 107.94399863 -115.03481213 93.42347075 -119.25 75.9375 C-123.57481238 55.16862697 -122.18296613 32.63426835 -110.29272461 14.453125 C-99.22532188 -1.68866916 -83.03127343 -12.36151406 -63.6484375 -16.03515625 C-62.93945312 -16.14730469 -62.23046875 -16.25945313 -61.5 -16.375 C-60.77039063 -16.49746094 -60.04078125 -16.61992188 -59.2890625 -16.74609375 C-38.50927164 -19.54204568 -15.68941583 -14.22290867 0 0 Z " fill="#00BDBF" transform="translate(269.5,57.375)"/>
<path d="M0 0 C9.10740151 7.51625815 13.72521076 16.56574474 15.53515625 28.1875 C15.53515625 30.1675 15.53515625 32.1475 15.53515625 34.1875 C3.65515625 34.1875 -8.22484375 34.1875 -20.46484375 34.1875 C-21.45484375 31.8775 -22.44484375 29.5675 -23.46484375 27.1875 C-29.88022726 22.10865472 -35.50975339 21.43036624 -43.46484375 22.1875 C-49.03107311 23.66519225 -53.33423921 25.15926748 -56.46484375 30.1875 C-57.4048046 33.5135153 -57.49368519 35.94234776 -57.08984375 39.375 C-55.06348108 42.88216615 -53.15762249 43.30752004 -49.39404297 44.46655273 C-42.57770432 46.14421968 -35.57059635 46.95342357 -28.62304688 47.91430664 C-12.99085138 50.09951143 3.25791285 52.76322059 13.8046875 65.5625 C20.10698868 75.12264987 20.88117579 87.06059052 19.53515625 98.1875 C18.06101382 104.5729435 15.51511349 109.96380612 11.53515625 115.1875 C10.73078125 116.3940625 10.73078125 116.3940625 9.91015625 117.625 C-0.79017278 129.17009184 -17.20909856 134.72971101 -32.6171875 135.5078125 C-51.07032592 136.06577684 -69.83050265 133.16889701 -83.91015625 119.96484375 C-92.36146921 110.30316687 -95.46484375 100.87913134 -95.46484375 88.1875 C-83.58484375 88.1875 -71.70484375 88.1875 -59.46484375 88.1875 C-58.14484375 90.8275 -56.82484375 93.4675 -55.46484375 96.1875 C-47.20892598 101.78473239 -36.30957517 101.45866441 -26.73046875 99.6796875 C-22.40382158 98.2645811 -19.57068322 96.21606247 -17.46484375 92.1875 C-17.13391215 88.58719811 -17.13391215 88.58719811 -18.46484375 85.1875 C-25.04248192 79.10318469 -34.56185671 78.97217425 -43.08984375 78.3125 C-58.27334465 76.94307966 -73.91039326 74.02973265 -84.7109375 62.421875 C-93.10629542 51.72667515 -94.53711288 39.41662041 -93.46484375 26.1875 C-91.87626668 17.92870444 -89.12659237 11.40027038 -83.46484375 5.1875 C-82.98660156 4.59582031 -82.50835937 4.00414062 -82.015625 3.39453125 C-62.43126176 -18.95236182 -22.06649327 -16.22639125 0 0 Z " fill="#00BDBF" transform="translate(95.46484375,51.8125)"/>
<path d="M0 0 C85.09149485 0 85.09149485 0 99.3828125 13.265625 C111.18679081 25.92496406 114.53536751 41.29747796 114.27734375 58.0546875 C113.70477756 72.88443673 106.8107364 85.97654636 96 96 C86.35598162 103.1356388 75.97221981 106.18356484 64.07421875 106.09765625 C63.41087524 106.09664917 62.74753174 106.09564209 62.06408691 106.09460449 C59.60520682 106.08940423 57.14635153 106.07544313 54.6875 106.0625 C46.4271875 106.0315625 46.4271875 106.0315625 38 106 C38 117.88 38 129.76 38 142 C25.46 142 12.92 142 0 142 C0 95.14 0 48.28 0 0 Z M38 33 C38 46.2 38 59.4 38 73 C42.145625 73.061875 46.29125 73.12375 50.5625 73.1875 C51.85615479 73.21481201 53.14980957 73.24212402 54.48266602 73.27026367 C60.7596854 73.31556225 65.52341115 73.19594809 71 70 C76.31142248 64.54502556 77.88784359 58.45217045 78 51 C77.27244163 44.64829997 74.79730164 39.53505461 70 35.1875 C66.0909168 32.86648185 62.40266975 32.88037907 57.921875 32.90234375 C56.35324707 32.90609009 56.35324707 32.90609009 54.75292969 32.90991211 C52.77147949 32.92356812 52.77147949 32.92356812 50.75 32.9375 C46.5425 32.958125 42.335 32.97875 38 33 Z " fill="#00BDBF" transform="translate(581,42)"/>
<path d="M0 0 C29.37 0 58.74 0 89 0 C89 10.89 89 21.78 89 33 C71.84 33 54.68 33 37 33 C37 39.27 37 45.54 37 52 C52.84 52 68.68 52 85 52 C85 62.89 85 73.78 85 85 C69.16 85 53.32 85 37 85 C37 92.92 37 100.84 37 109 C54.82 109 72.64 109 91 109 C91 119.89 91 130.78 91 142 C60.97 142 30.94 142 0 142 C0 95.14 0 48.28 0 0 Z " fill="#00BDBF" transform="translate(732,42)"/>
</svg>
